# xmcd CD database file
#
# Track frame offsets:
#	150
#	14460
#	38400
#	53835
#	67364
#	101506
#	123847
#	141713
#	158116
#	170479
#	193085
#	216670
#	243532
#
# Disc length: 3376 seconds
#
# Revision: 0
# Processed by: cddbd v1.5.2PL0 Copyright (c) Steve Scherf et al.
# Submitted via: CDex 1.70beta2
#
DISCID=c60d2e0d
DTITLE=Various Artist - Salsadancers Allstars II
DYEAR=1900
DGENRE=Salsa
TTITLE0=Relax And Mambo
TTITLE1=Apurate
TTITLE2=Mi Negrita Me Espera
TTITLE3=Me Siento Guajira
TTITLE4=Estrellas Se Fania
TTITLE5=Te Traigo Mi Son
TTITLE6=Flor De Los Lindos
TTITLE7=Que Te Vas... Puers Vete
TTITLE8=La Cumbita O Blabla Da
TTITLE9=Guego A La Jicoteca
TTITLE10=Valio La Pera
TTITLE11=Ave Maria Lola
TTITLE12=Clave Conga
EXTD=
EXTT0=
EXTT1=
EXTT2=
EXTT3=
EXTT4=
EXTT5=
EXTT6=
EXTT7=
EXTT8=
EXTT9=
EXTT10=
EXTT11=
EXTT12=
PLAYORDER=
